<?xml version="1.0" encoding="iso-8859-1"?>
<!-- Generator: Adobe Illustrator 19.0.0, SVG Export Plug-In . SVG Version: 6.00 Build 0)  -->
<svg version="1.1" id="Layer_1" xmlns="http://www.w3.org/2000/svg" xmlns:xlink="http://www.w3.org/1999/xlink" x="0px" y="0px"
	 viewBox="0 0 491.52 491.52" style="enable-background:new 0 0 491.52 491.52;" xml:space="preserve">
<circle style="fill:#45B39C;" cx="245.76" cy="245.76" r="245.76"/>
<path style="opacity:0.1;enable-background:new    ;" d="M278.221,104.95H134.707c-5.683,0-10.291,4.608-10.291,10.291v261.018
	c0,2.867,1.178,5.478,3.072,7.322l107.671,107.672c3.518,0.149,7.045,0.268,10.601,0.268c113.573,0,209.104-77.06,237.282-181.732
	L340.019,166.799L278.221,104.95z"/>
<path style="fill:#EBF0F3;" d="M278.198,104.96h-143.51c-5.681,0-10.287,4.606-10.287,10.288v261.025
	c0,5.682,4.606,10.288,10.287,10.288h195.054c5.681,0,10.288-4.606,10.288-10.288v-209.48L278.198,104.96z"/>
<path style="fill:#D5D6DB;" d="M278.198,104.96v51.545c0,5.682,4.606,10.288,10.288,10.288h51.544L278.198,104.96z"/>
<path style="fill:#D15241;" d="M256.974,243.988l-44.274-33.691c-2.851-2.17-6.953-0.136-6.953,3.446v67.384
	c0,3.582,4.102,5.616,6.953,3.446l44.274-33.692C259.252,249.147,259.252,245.721,256.974,243.988z"/>
<path style="fill:#E56353;" d="M256.974,240.638l-44.274-33.691c-2.851-2.17-6.953-0.136-6.953,3.446v67.384
	c0,3.582,4.102,5.616,6.953,3.446l44.274-33.693C259.252,245.798,259.252,242.372,256.974,240.638z"/>
<ellipse style="opacity:0.25;fill:#27A2DB;enable-background:new    ;" cx="228.474" cy="245.393" rx="55.818" ry="55.818"/>
<path style="fill:#3A556A;" d="M272.871,303.348l11.643,11.643l13.558-13.558L286.43,289.79
	c21.998-28.653,19.95-69.834-6.284-96.068c-28.537-28.537-74.805-28.537-103.342,0.001c-28.537,28.537-28.537,74.804,0,103.342
	C203.037,323.298,244.219,325.347,272.871,303.348z M189.006,284.862c-21.798-21.798-21.798-57.14,0-78.938
	c21.798-21.798,57.14-21.798,78.938,0s21.798,57.139,0,78.938C246.145,306.66,210.804,306.66,189.006,284.862z"/>
<path style="fill:#2F4859;" d="M280.935,316.19l18.337-18.337c0.913-0.913,2.393-0.913,3.306,0l6.952,6.952l-21.643,21.643
	l-6.952-6.952C280.021,318.583,280.022,317.103,280.935,316.19z"/>
<path style="fill:#FCD462;" d="M285.448,331.137c-0.621-0.621-0.621-1.628,0-2.249l26.522-26.522
	c0.621-0.621,1.628-0.621,2.249,0.001l46.507,46.506l-28.77,28.77L285.448,331.137z"/>
<path style="fill:#F6C358;" d="M360.724,348.873l5.929,5.93c0.621,0.621,0.621,1.628,0,2.249l-26.522,26.522
	c-0.621,0.621-1.628,0.621-2.249-0.001l-5.929-5.929L360.724,348.873z"/>
<g>
</g>
<g>
</g>
<g>
</g>
<g>
</g>
<g>
</g>
<g>
</g>
<g>
</g>
<g>
</g>
<g>
</g>
<g>
</g>
<g>
</g>
<g>
</g>
<g>
</g>
<g>
</g>
<g>
</g>
</svg>
